# xmcd
#
# Track frame offsets:
# 150
# 16892
# 29772
# 44600
# 61977
# 80430
# 96645
# 117012
# 131387
# 147107
# 162705
# 180407
#
# Disc length: 2644 seconds
#
#
# Revision: 0
# Processed by: cddbd v1.5.2PL0 Copyright (c) Steve Scherf et al.
# Submitted via: FreeRIP 2.951 
#
DISCID=a40a520c
DTITLE=Bruno/Marrone/Zezé/Luciano/Leonardo - Grandes Sucessos
DYEAR=2006
DGENRE=Country
TTITLE0=A Ferro e Fogo
TTITLE1=Dormi na Praça (Acústico)
TTITLE2=Não aprendi a Dizer Adeus
TTITLE3=Inevitável
TTITLE4=Eu Amo
TTITLE5=Fantasias
TTITLE6=Dou a Vida por um Beijo
TTITLE7=Te Amo Demais
TTITLE8=Ligação Urbana
TTITLE9=Nosso Amor é Ouro
TTITLE10=Mentira que Virou Paixão
TTITLE11=Vai dar Namoro
EXTD=
EXTT0=Zezé Di Camargo and Luciano
EXTT1=Bruno e Marrone
EXTT2=Leonardo
EXTT3=Bruno e Marrone
EXTT4=Zezé Di Camargo and Luciano
EXTT5=Leonardo
EXTT6=Zezé Di Camargo and Luciano
EXTT7=Leonardo
EXTT8=Bruno e Marrone
EXTT9=Zezé Di Camargo and Luciano
EXTT10=Leonardo
EXTT11=Bruno e Marrone
PLAYORDER=
